<svg xmlns="http://www.w3.org/2000/svg" width="960" height="420" viewBox="0 0 960 420" role="img" aria-label="Assignment quality by strategy"><rect width="960" height="420" fill="#ffffff"/><text x="24" y="30" font-family="'Inter', 'Helvetica Neue', Arial, sans-serif" font-size="16" font-weight="600" fill="#111827">Assignment quality by strategy</text><text x="24" y="50" font-family="'Inter', 'Helvetica Neue', Arial, sans-serif" font-size="11.5" fill="#6b7280">mean match score ± 95% CI over 30 independent populations — higher is better</text><rect x="24" y="64" width="10" height="10" rx="2" fill="#94a3b8"/><text x="39.0" y="72.0" font-family="'Inter', 'Helvetica Neue', Arial, sans-serif" font-size="11" font-weight="400" fill="#6b7280" text-anchor="start">fcfs-filter</text><rect x="129.4" y="64" width="10" height="10" rx="2" fill="#60a5fa"/><text x="144.4" y="72.0" font-family="'Inter', 'Helvetica Neue', Arial, sans-serif" font-size="11" font-weight="400" fill="#6b7280" text-anchor="start">fcfs-best</text><rect x="222" y="64" width="10" height="10" rx="2" fill="#f59e0b"/><text x="237.0" y="72.0" font-family="'Inter', 'Helvetica Neue', Arial, sans-serif" font-size="11" font-weight="400" fill="#6b7280" text-anchor="start">da-stable</text><rect x="314.6" y="64" width="10" height="10" rx="2" fill="#111827"/><text x="329.6" y="72.0" font-family="'Inter', 'Helvetica Neue', Arial, sans-serif" font-size="11" font-weight="400" fill="#6b7280" text-anchor="start">greedy-engine</text><rect x="432.8" y="64" width="10" height="10" rx="2" fill="#db2777"/><text x="447.8" y="72.0" font-family="'Inter', 'Helvetica Neue', Arial, sans-serif" font-size="11" font-weight="400" fill="#6b7280" text-anchor="start">greedy-engine-repair</text><line x1="72" y1="356.0" x2="932" y2="356.0" stroke="#e5e7eb" stroke-width="1"/><text x="62.0" y="360.0" font-family="'Inter', 'Helvetica Neue', Arial, sans-serif" font-size="10" font-weight="400" fill="#6b7280" text-anchor="end">0.500</text><line x1="72" y1="304.0" x2="932" y2="304.0" stroke="#e5e7eb" stroke-width="1"/><text x="62.0" y="308.0" font-family="'Inter', 'Helvetica Neue', Arial, sans-serif" font-size="10" font-weight="400" fill="#6b7280" text-anchor="end">0.550</text><line x1="72" y1="252.0" x2="932" y2="252.0" stroke="#e5e7eb" stroke-width="1"/><text x="62.0" y="256.0" font-family="'Inter', 'Helvetica Neue', Arial, sans-serif" font-size="10" font-weight="400" fill="#6b7280" text-anchor="end">0.600</text><line x1="72" y1="200.0" x2="932" y2="200.0" stroke="#e5e7eb" stroke-width="1"/><text x="62.0" y="204.0" font-family="'Inter', 'Helvetica Neue', Arial, sans-serif" font-size="10" font-weight="400" fill="#6b7280" text-anchor="end">0.650</text><line x1="72" y1="148.0" x2="932" y2="148.0" stroke="#e5e7eb" stroke-width="1"/><text x="62.0" y="152.0" font-family="'Inter', 'Helvetica Neue', Arial, sans-serif" font-size="10" font-weight="400" fill="#6b7280" text-anchor="end">0.700</text><line x1="72" y1="96.0" x2="932" y2="96.0" stroke="#e5e7eb" stroke-width="1"/><text x="62.0" y="100.0" font-family="'Inter', 'Helvetica Neue', Arial, sans-serif" font-size="10" font-weight="400" fill="#6b7280" text-anchor="end">0.750</text><text x="72.0" y="376.0" font-family="'Inter', 'Helvetica Neue', Arial, sans-serif" font-size="10" font-weight="400" fill="#111827" text-anchor="middle">realistic-1to1</text><text x="287.0" y="376.0" font-family="'Inter', 'Helvetica Neue', Arial, sans-serif" font-size="10" font-weight="400" fill="#111827" text-anchor="middle">moderate-1.5to1</text><text x="502.0" y="376.0" font-family="'Inter', 'Helvetica Neue', Arial, sans-serif" font-size="10" font-weight="400" fill="#111827" text-anchor="middle">moderate-2to1</text><text x="717.0" y="376.0" font-family="'Inter', 'Helvetica Neue', Arial, sans-serif" font-size="10" font-weight="400" fill="#111827" text-anchor="middle">moderate-3to1</text><text x="932.0" y="376.0" font-family="'Inter', 'Helvetica Neue', Arial, sans-serif" font-size="10" font-weight="400" fill="#111827" text-anchor="middle">stress-10to1</text><path d="M72.0,332.5 L287.0,329.2 L502.0,329.3 L717.0,330.3 L932.0,331.0" fill="none" stroke="#94a3b8" stroke-width="2"/><line x1="72.0" y1="326.8" x2="72.0" y2="338.2" stroke="#111827" stroke-width="1"/><line x1="69.0" y1="326.8" x2="75.0" y2="326.8" stroke="#111827" stroke-width="1"/><line x1="69.0" y1="338.2" x2="75.0" y2="338.2" stroke="#111827" stroke-width="1"/><line x1="287.0" y1="326.6" x2="287.0" y2="331.8" stroke="#111827" stroke-width="1"/><line x1="284.0" y1="326.6" x2="290.0" y2="326.6" stroke="#111827" stroke-width="1"/><line x1="284.0" y1="331.8" x2="290.0" y2="331.8" stroke="#111827" stroke-width="1"/><line x1="502.0" y1="325.9" x2="502.0" y2="332.7" stroke="#111827" stroke-width="1"/><line x1="499.0" y1="325.9" x2="505.0" y2="325.9" stroke="#111827" stroke-width="1"/><line x1="499.0" y1="332.7" x2="505.0" y2="332.7" stroke="#111827" stroke-width="1"/><line x1="717.0" y1="326.1" x2="717.0" y2="334.6" stroke="#111827" stroke-width="1"/><line x1="714.0" y1="326.1" x2="720.0" y2="326.1" stroke="#111827" stroke-width="1"/><line x1="714.0" y1="334.6" x2="720.0" y2="334.6" stroke="#111827" stroke-width="1"/><line x1="932.0" y1="328.9" x2="932.0" y2="333.1" stroke="#111827" stroke-width="1"/><line x1="929.0" y1="328.9" x2="935.0" y2="328.9" stroke="#111827" stroke-width="1"/><line x1="929.0" y1="333.1" x2="935.0" y2="333.1" stroke="#111827" stroke-width="1"/><circle cx="72.0" cy="332.5" r="3.5" fill="#94a3b8"/><circle cx="287.0" cy="329.2" r="3.5" fill="#94a3b8"/><circle cx="502.0" cy="329.3" r="3.5" fill="#94a3b8"/><circle cx="717.0" cy="330.3" r="3.5" fill="#94a3b8"/><circle cx="932.0" cy="331.0" r="3.5" fill="#94a3b8"/><path d="M72.0,260.8 L287.0,231.9 L502.0,254.0 L717.0,278.6 L932.0,270.5" fill="none" stroke="#60a5fa" stroke-width="2"/><line x1="72.0" y1="253.4" x2="72.0" y2="268.1" stroke="#111827" stroke-width="1"/><line x1="69.0" y1="253.4" x2="75.0" y2="253.4" stroke="#111827" stroke-width="1"/><line x1="69.0" y1="268.1" x2="75.0" y2="268.1" stroke="#111827" stroke-width="1"/><line x1="287.0" y1="227.6" x2="287.0" y2="236.2" stroke="#111827" stroke-width="1"/><line x1="284.0" y1="227.6" x2="290.0" y2="227.6" stroke="#111827" stroke-width="1"/><line x1="284.0" y1="236.2" x2="290.0" y2="236.2" stroke="#111827" stroke-width="1"/><line x1="502.0" y1="250.2" x2="502.0" y2="257.9" stroke="#111827" stroke-width="1"/><line x1="499.0" y1="250.2" x2="505.0" y2="250.2" stroke="#111827" stroke-width="1"/><line x1="499.0" y1="257.9" x2="505.0" y2="257.9" stroke="#111827" stroke-width="1"/><line x1="717.0" y1="274.0" x2="717.0" y2="283.2" stroke="#111827" stroke-width="1"/><line x1="714.0" y1="274.0" x2="720.0" y2="274.0" stroke="#111827" stroke-width="1"/><line x1="714.0" y1="283.2" x2="720.0" y2="283.2" stroke="#111827" stroke-width="1"/><line x1="932.0" y1="267.2" x2="932.0" y2="273.7" stroke="#111827" stroke-width="1"/><line x1="929.0" y1="267.2" x2="935.0" y2="267.2" stroke="#111827" stroke-width="1"/><line x1="929.0" y1="273.7" x2="935.0" y2="273.7" stroke="#111827" stroke-width="1"/><circle cx="72.0" cy="260.8" r="3.5" fill="#60a5fa"/><circle cx="287.0" cy="231.9" r="3.5" fill="#60a5fa"/><circle cx="502.0" cy="254.0" r="3.5" fill="#60a5fa"/><circle cx="717.0" cy="278.6" r="3.5" fill="#60a5fa"/><circle cx="932.0" cy="270.5" r="3.5" fill="#60a5fa"/><path d="M72.0,258.1 L287.0,224.2 L502.0,241.3 L717.0,253.7 L932.0,141.7" fill="none" stroke="#f59e0b" stroke-width="2"/><line x1="72.0" y1="250.8" x2="72.0" y2="265.3" stroke="#111827" stroke-width="1"/><line x1="69.0" y1="250.8" x2="75.0" y2="250.8" stroke="#111827" stroke-width="1"/><line x1="69.0" y1="265.3" x2="75.0" y2="265.3" stroke="#111827" stroke-width="1"/><line x1="287.0" y1="220.2" x2="287.0" y2="228.2" stroke="#111827" stroke-width="1"/><line x1="284.0" y1="220.2" x2="290.0" y2="220.2" stroke="#111827" stroke-width="1"/><line x1="284.0" y1="228.2" x2="290.0" y2="228.2" stroke="#111827" stroke-width="1"/><line x1="502.0" y1="237.5" x2="502.0" y2="245.2" stroke="#111827" stroke-width="1"/><line x1="499.0" y1="237.5" x2="505.0" y2="237.5" stroke="#111827" stroke-width="1"/><line x1="499.0" y1="245.2" x2="505.0" y2="245.2" stroke="#111827" stroke-width="1"/><line x1="717.0" y1="249.0" x2="717.0" y2="258.4" stroke="#111827" stroke-width="1"/><line x1="714.0" y1="249.0" x2="720.0" y2="249.0" stroke="#111827" stroke-width="1"/><line x1="714.0" y1="258.4" x2="720.0" y2="258.4" stroke="#111827" stroke-width="1"/><line x1="932.0" y1="138.9" x2="932.0" y2="144.5" stroke="#111827" stroke-width="1"/><line x1="929.0" y1="138.9" x2="935.0" y2="138.9" stroke="#111827" stroke-width="1"/><line x1="929.0" y1="144.5" x2="935.0" y2="144.5" stroke="#111827" stroke-width="1"/><circle cx="72.0" cy="258.1" r="3.5" fill="#f59e0b"/><circle cx="287.0" cy="224.2" r="3.5" fill="#f59e0b"/><circle cx="502.0" cy="241.3" r="3.5" fill="#f59e0b"/><circle cx="717.0" cy="253.7" r="3.5" fill="#f59e0b"/><circle cx="932.0" cy="141.7" r="3.5" fill="#f59e0b"/><path d="M72.0,257.5 L287.0,223.1 L502.0,240.8 L717.0,253.8 L932.0,141.3" fill="none" stroke="#111827" stroke-width="2"/><line x1="72.0" y1="250.1" x2="72.0" y2="264.9" stroke="#111827" stroke-width="1"/><line x1="69.0" y1="250.1" x2="75.0" y2="250.1" stroke="#111827" stroke-width="1"/><line x1="69.0" y1="264.9" x2="75.0" y2="264.9" stroke="#111827" stroke-width="1"/><line x1="287.0" y1="219.0" x2="287.0" y2="227.3" stroke="#111827" stroke-width="1"/><line x1="284.0" y1="219.0" x2="290.0" y2="219.0" stroke="#111827" stroke-width="1"/><line x1="284.0" y1="227.3" x2="290.0" y2="227.3" stroke="#111827" stroke-width="1"/><line x1="502.0" y1="236.9" x2="502.0" y2="244.6" stroke="#111827" stroke-width="1"/><line x1="499.0" y1="236.9" x2="505.0" y2="236.9" stroke="#111827" stroke-width="1"/><line x1="499.0" y1="244.6" x2="505.0" y2="244.6" stroke="#111827" stroke-width="1"/><line x1="717.0" y1="249.2" x2="717.0" y2="258.4" stroke="#111827" stroke-width="1"/><line x1="714.0" y1="249.2" x2="720.0" y2="249.2" stroke="#111827" stroke-width="1"/><line x1="714.0" y1="258.4" x2="720.0" y2="258.4" stroke="#111827" stroke-width="1"/><line x1="932.0" y1="138.6" x2="932.0" y2="144.1" stroke="#111827" stroke-width="1"/><line x1="929.0" y1="138.6" x2="935.0" y2="138.6" stroke="#111827" stroke-width="1"/><line x1="929.0" y1="144.1" x2="935.0" y2="144.1" stroke="#111827" stroke-width="1"/><circle cx="72.0" cy="257.5" r="3.5" fill="#111827"/><circle cx="287.0" cy="223.1" r="3.5" fill="#111827"/><circle cx="502.0" cy="240.8" r="3.5" fill="#111827"/><circle cx="717.0" cy="253.8" r="3.5" fill="#111827"/><circle cx="932.0" cy="141.3" r="3.5" fill="#111827"/><path d="M72.0,262.3 L287.0,231.5 L502.0,259.2 L717.0,282.7 L932.0,141.3" fill="none" stroke="#db2777" stroke-width="2"/><line x1="72.0" y1="255.2" x2="72.0" y2="269.4" stroke="#111827" stroke-width="1"/><line x1="69.0" y1="255.2" x2="75.0" y2="255.2" stroke="#111827" stroke-width="1"/><line x1="69.0" y1="269.4" x2="75.0" y2="269.4" stroke="#111827" stroke-width="1"/><line x1="287.0" y1="227.4" x2="287.0" y2="235.6" stroke="#111827" stroke-width="1"/><line x1="284.0" y1="227.4" x2="290.0" y2="227.4" stroke="#111827" stroke-width="1"/><line x1="284.0" y1="235.6" x2="290.0" y2="235.6" stroke="#111827" stroke-width="1"/><line x1="502.0" y1="255.3" x2="502.0" y2="263.0" stroke="#111827" stroke-width="1"/><line x1="499.0" y1="255.3" x2="505.0" y2="255.3" stroke="#111827" stroke-width="1"/><line x1="499.0" y1="263.0" x2="505.0" y2="263.0" stroke="#111827" stroke-width="1"/><line x1="717.0" y1="276.5" x2="717.0" y2="289.0" stroke="#111827" stroke-width="1"/><line x1="714.0" y1="276.5" x2="720.0" y2="276.5" stroke="#111827" stroke-width="1"/><line x1="714.0" y1="289.0" x2="720.0" y2="289.0" stroke="#111827" stroke-width="1"/><line x1="932.0" y1="138.6" x2="932.0" y2="144.1" stroke="#111827" stroke-width="1"/><line x1="929.0" y1="138.6" x2="935.0" y2="138.6" stroke="#111827" stroke-width="1"/><line x1="929.0" y1="144.1" x2="935.0" y2="144.1" stroke="#111827" stroke-width="1"/><circle cx="72.0" cy="262.3" r="3.5" fill="#db2777"/><circle cx="287.0" cy="231.5" r="3.5" fill="#db2777"/><circle cx="502.0" cy="259.2" r="3.5" fill="#db2777"/><circle cx="717.0" cy="282.7" r="3.5" fill="#db2777"/><circle cx="932.0" cy="141.3" r="3.5" fill="#db2777"/><line x1="72" y1="356" x2="932" y2="356" stroke="#9ca3af" stroke-width="1"/><text x="502.0" y="400.0" font-family="'Inter', 'Helvetica Neue', Arial, sans-serif" font-size="11" font-weight="400" fill="#6b7280" text-anchor="middle">scenario</text><text transform="rotate(-90 24 226)" x="24.0" y="226.0" font-family="'Inter', 'Helvetica Neue', Arial, sans-serif" font-size="11" font-weight="400" fill="#6b7280" text-anchor="middle">mean match score</text></svg>